<svg xmlns="http://www.w3.org/2000/svg" width="840" height="840" viewBox="0 0 840 840" role="img" aria-label="Profile placeholder">
  <defs>
    <linearGradient id="frame" x1="0" y1="0" x2="1" y2="1">
      <stop offset="0" stop-color="#ffffff"/>
      <stop offset="1" stop-color="#edf4ff"/>
    </linearGradient>
    <linearGradient id="accent" x1="0" y1="0" x2="1" y2="1">
      <stop offset="0" stop-color="#1a73e8"/>
      <stop offset="1" stop-color="#00a1e0"/>
    </linearGradient>
    <filter id="shadow" x="-20%" y="-20%" width="140%" height="140%">
      <feDropShadow dx="0" dy="24" stdDeviation="24" flood-color="#1a3c78" flood-opacity="0.12"/>
    </filter>
  </defs>

  <rect width="840" height="840" rx="56" fill="#f6faff"/>
  <rect x="56" y="56" width="728" height="728" rx="40" fill="url(#frame)" stroke="rgba(26,115,232,0.10)" filter="url(#shadow)"/>

  <circle cx="190" cy="176" r="126" fill="#e7f0ff"/>
  <circle cx="682" cy="214" r="110" fill="#e8f7ff"/>
  <circle cx="652" cy="670" r="126" fill="#edf8f0"/>

  <rect x="116" y="118" width="608" height="604" rx="30" fill="#ffffff" stroke="rgba(26,115,232,0.10)"/>

  <g transform="translate(0 8)">
    <circle cx="420" cy="314" r="92" fill="#edf4ff" stroke="rgba(26,115,232,0.14)" stroke-width="3"/>
    <path d="M246 642c24-134 145-210 174-210s150 76 174 210" fill="#edf4ff" stroke="rgba(26,115,232,0.14)" stroke-width="3"/>

    <rect x="284" y="502" width="272" height="56" rx="18" fill="#f8fbff" stroke="rgba(26,115,232,0.10)"/>
    <text x="420" y="538" text-anchor="middle" font-family="Manrope, Segoe UI, Arial, sans-serif" font-size="24" font-weight="700" fill="#1a73e8">
      Add your photo
    </text>
  </g>

  <g transform="translate(142 134)">
    <rect width="150" height="44" rx="16" fill="rgba(26,115,232,0.10)"/>
    <text x="75" y="28" text-anchor="middle" font-family="Manrope, Segoe UI, Arial, sans-serif" font-size="18" font-weight="700" fill="#1a73e8">
      Salesforce
    </text>
  </g>

  <g transform="translate(522 612)">
    <rect width="166" height="44" rx="16" fill="rgba(52,168,83,0.10)"/>
    <text x="83" y="28" text-anchor="middle" font-family="Manrope, Segoe UI, Arial, sans-serif" font-size="18" font-weight="700" fill="#207245">
      Chrome Store
    </text>
  </g>

  <circle cx="664" cy="160" r="20" fill="#1a73e8"/>
  <circle cx="702" cy="160" r="20" fill="#34a853"/>
  <circle cx="683" cy="196" r="20" fill="#fbbc04"/>
  <path d="M683 126l18 34h-36z" fill="#ea4335" opacity="0.92"/>
</svg>
