<?xml version="1.0" encoding="utf-8"?><!-- Uploaded to: SVG Repo, www.svgrepo.com, Generator: SVG Repo Mixer Tools -->
<svg fill="#000000" width="800px" height="800px" viewBox="0 0 24 24" id="handphone-rotate-right-2" data-name="Flat Color" xmlns="http://www.w3.org/2000/svg" class="icon flat-color"><path id="secondary" d="M17,14.91a1,1,0,0,1-1-.75,1,1,0,0,1,.72-1.22C19.12,12.32,20,11.42,20,11s-.88-1.32-3.25-1.94a1,1,0,1,1,.5-1.94C20.27,7.91,22,9.32,22,11s-1.73,3.09-4.75,3.88A1.07,1.07,0,0,1,17,14.91Zm-4,.57a1,1,0,1,0-.06-2,21,21,0,0,1-5.72-.54C4.88,12.32,4,11.42,4,11S5,9.65,7.26,9.06a1,1,0,0,0-.52-1.94C3.73,7.92,2,9.33,2,11s1.73,3.09,4.75,3.88A21.17,21.17,0,0,0,12,15.5Z" style="fill: rgb(44, 169, 188);"></path><rect id="primary" x="6" y="3" width="12" height="18" rx="2" style="fill: rgb(0, 0, 0);"></rect><path id="secondary-2" data-name="secondary" d="M17,14.91a1,1,0,0,1-1-.75,1,1,0,0,1,.72-1.22C19.12,12.32,20,11.42,20,11a1,1,0,0,1,2,0c0,1.68-1.73,3.09-4.75,3.88A1.07,1.07,0,0,1,17,14.91Zm-3.29-1.14-1.5-1.5a1,1,0,0,0-1.42,0,1,1,0,0,0-.16,1.16,17.4,17.4,0,0,1-3.38-.49C4.88,12.32,4,11.42,4,11a1,1,0,0,0-2,0c0,1.68,1.73,3.09,4.75,3.88a20.41,20.41,0,0,0,3.92.58,1,1,0,0,0,.12,1.22,1,1,0,0,0,1.42,0l1.5-1.5A1,1,0,0,0,13.71,13.77Z" style="fill: rgb(44, 169, 188);"></path></svg>